<svg width="16" height="16" viewBox="0 0 16 16" fill="none" xmlns="http://www.w3.org/2000/svg">
<path d="M7.99998 1.44144C10.1361 1.44144 10.3891 1.4496 11.2327 1.48809C12.0127 1.52366 12.4363 1.65398 12.7182 1.76354C13.0916 1.90867 13.3581 2.08202 13.638 2.36195C13.918 2.64191 14.0913 2.90841 14.2364 3.28183C14.346 3.56373 14.4763 3.98732 14.5119 4.76731C14.5504 5.61088 14.5585 5.86391 14.5585 7.99998C14.5585 10.1361 14.5504 10.3891 14.5119 11.2327C14.4763 12.0127 14.346 12.4363 14.2364 12.7182C14.0913 13.0916 13.918 13.3581 13.638 13.638C13.3581 13.918 13.0916 14.0913 12.7182 14.2365C12.4363 14.346 12.0127 14.4763 11.2327 14.5119C10.3892 14.5504 10.1362 14.5586 7.99998 14.5586C5.86371 14.5586 5.61074 14.5504 4.76727 14.5119C3.98727 14.4763 3.56368 14.346 3.28178 14.2365C2.90836 14.0913 2.64186 13.918 2.36193 13.638C2.082 13.3581 1.90861 13.0916 1.76349 12.7182C1.65393 12.4363 1.5236 12.0127 1.48803 11.2327C1.44954 10.3891 1.44138 10.1361 1.44138 7.99998C1.44138 5.86391 1.44954 5.61088 1.48803 4.76731C1.5236 3.98732 1.65393 3.56373 1.76349 3.28183C1.90861 2.90841 2.08197 2.64191 2.36193 2.36198C2.64186 2.08202 2.90836 1.90867 3.28178 1.76354C3.56368 1.65398 3.98727 1.52366 4.76727 1.48809C5.61084 1.4496 5.86387 1.44144 7.99998 1.44144ZM7.99998 0C5.82729 0 5.55485 0.00920925 4.70157 0.0481422C3.85006 0.0869798 3.26851 0.222229 2.75964 0.419974C2.23357 0.624419 1.78743 0.897966 1.34265 1.34271C0.897908 1.78748 0.62436 2.23363 0.419946 2.7597C0.222169 3.26856 0.0869191 3.8501 0.0480813 4.70161C0.00914825 5.5549 -6.10352e-05 5.82733 -6.10352e-05 7.99998C-6.10352e-05 10.1727 0.00914825 10.4451 0.0480813 11.2984C0.0869191 12.1499 0.222169 12.7314 0.419946 13.2403C0.62436 13.7664 0.897908 14.2125 1.34265 14.6573C1.78743 15.102 2.23357 15.3756 2.75964 15.58C3.26851 15.7778 3.85006 15.913 4.70157 15.9519C5.55485 15.9908 5.82729 16 7.99998 16C10.1726 16 10.4451 15.9908 11.2984 15.9519C12.1499 15.913 12.7314 15.7778 13.2403 15.58C13.7664 15.3756 14.2125 15.102 14.6573 14.6573C15.102 14.2125 15.3756 13.7664 15.58 13.2403C15.7778 12.7314 15.913 12.1499 15.9519 11.2984C15.9908 10.4451 16 10.1727 16 7.99998C16 5.82733 15.9908 5.5549 15.9519 4.70161C15.913 3.8501 15.7778 3.26856 15.58 2.7597C15.3756 2.23363 15.102 1.78748 14.6573 1.34271C14.2125 0.897966 13.7664 0.624419 13.2403 0.419974C12.7314 0.222229 12.1499 0.0869798 11.2984 0.0481422C10.4451 0.00920925 10.1726 0 7.99998 0Z" fill="#8C8C8C"/>
<path d="M8.00377 3.89551C5.73488 3.89551 3.89563 5.73476 3.89563 8.0036C3.89563 10.2725 5.73488 12.1117 8.00377 12.1117C10.2726 12.1117 12.1119 10.2725 12.1119 8.0036C12.1119 5.73476 10.2726 3.89551 8.00377 3.89551ZM8.00377 10.6703C6.53098 10.6703 5.33707 9.47638 5.33707 8.0036C5.33707 6.53085 6.53098 5.33695 8.00377 5.33695C9.47652 5.33695 10.6704 6.53085 10.6704 8.0036C10.6704 9.47638 9.47652 10.6703 8.00377 10.6703Z" fill="#8C8C8C"/>
<path d="M13.2338 3.73102C13.2338 4.26118 12.804 4.691 12.2738 4.691C11.7436 4.691 11.3138 4.26118 11.3138 3.73102C11.3138 3.20082 11.7436 2.771 12.2738 2.771C12.804 2.771 13.2338 3.20082 13.2338 3.73102Z" fill="#8C8C8C"/>
</svg>
