<svg width="16" height="16" viewBox="0 0 16 16" fill="none" xmlns="http://www.w3.org/2000/svg">
<path fill-rule="evenodd" clip-rule="evenodd" d="M3.47248 2.64537C3.47248 3.54236 2.783 4.26828 1.70478 4.26828C0.668561 4.26828 -0.0209172 3.54236 0.000420604 2.64537C-0.0209172 1.70478 0.668544 1 1.72543 1C2.78299 1 3.45181 1.70478 3.47248 2.64537ZM0.0871087 15.9986V5.55036H3.36512V15.9979H0.0871087V15.9986Z" fill="#8C8C8C"/>
<path fill-rule="evenodd" clip-rule="evenodd" d="M5.99288 8.88488C5.99288 7.58167 5.94953 6.47066 5.90619 5.55187H8.75345L8.9048 6.98323H8.96949C9.40092 6.32072 10.4791 5.31738 12.2262 5.31738C14.3826 5.31738 16.0003 6.72761 16.0003 9.80302V16.0001H12.7223V10.2099C12.7223 8.86309 12.2482 7.94495 11.0619 7.94495C10.1557 7.94495 9.61697 8.56453 9.40159 9.1623C9.31491 9.37631 9.27223 9.67487 9.27223 9.97475V16.0001H5.9942V8.88488H5.99288Z" fill="#8C8C8C"/>
</svg>
