<svg width="69" height="68" viewBox="0 0 69 68" fill="none" xmlns="http://www.w3.org/2000/svg">
<g id="Shape" clip-path="url(#clip0_68_1253)">
<g id="Vector">
<path fill-rule="evenodd" clip-rule="evenodd" d="M36.9286 1.36C36.9286 0.608892 36.3197 0 35.5686 0H33.4314C32.6803 0 32.0714 0.608892 32.0714 1.36V14.5095C32.0714 16.0043 30.0104 16.4049 29.4505 15.0189L24.5246 2.82695C24.2432 2.13054 23.4505 1.79407 22.7542 2.07544L20.7726 2.87603C20.0762 3.1574 19.7397 3.95005 20.0211 4.64647L25.2726 17.6443C25.8276 19.0179 24.0975 20.163 23.0499 19.1154L13.1373 9.20278C12.6062 8.67167 11.7451 8.67167 11.2139 9.20278L9.70278 10.7139C9.17167 11.2451 9.17167 12.1062 9.70278 12.6373L18.6043 21.5388C19.6669 22.6014 18.4752 24.3484 17.0981 23.7467L5.56243 18.7067C4.87413 18.4059 4.07241 18.7201 3.77169 19.4084L2.91605 21.3668C2.61534 22.0551 2.92952 22.8568 3.6178 23.1575L16.9104 28.9652C18.2608 29.5552 17.8395 31.5714 16.3659 31.5714H1.86C1.10889 31.5714 0.5 32.1803 0.5 32.9314V35.0686C0.5 35.8197 1.10889 36.4286 1.86 36.4286H16.3658C17.8395 36.4286 18.2607 38.4448 16.9103 39.0347L3.61782 44.8426C2.92954 45.1432 2.61535 45.9449 2.91607 46.633L3.77171 48.5914C4.07241 49.2799 4.87417 49.5941 5.56243 49.2932L17.0981 44.2534C18.4752 43.6516 19.6669 45.3985 18.6043 46.4613L9.70278 55.3625C9.17167 55.894 9.17167 56.7548 9.70278 57.2859L11.214 58.7972C11.7451 59.3283 12.6062 59.3283 13.1373 58.7972L23.0499 48.8845C24.0976 47.837 25.8276 48.9821 25.2726 50.3557L20.0211 63.3536C19.7397 64.0499 20.0762 64.8424 20.7726 65.1239L22.7541 65.9246C23.4505 66.2058 24.2432 65.8696 24.5246 65.1729L29.4505 52.9812C30.0104 51.595 32.0714 51.9959 32.0714 53.4905V66.64C32.0714 67.3911 32.6803 68 33.4314 68H35.5686C36.3197 68 36.9286 67.3911 36.9286 66.64V53.4905C36.9286 51.9959 38.9897 51.595 39.5497 52.9812L44.4753 65.1729C44.7568 65.8696 45.5493 66.2058 46.246 65.9246L48.2275 65.1239C48.9238 64.8424 49.2604 64.0499 48.9789 63.3536L43.7276 50.3557C43.1724 48.9821 44.9023 47.837 45.9502 48.8845L55.8625 58.7972C56.394 59.3283 57.2548 59.3283 57.7859 58.7972L59.2972 57.2859C59.8283 56.7548 59.8283 55.894 59.2972 55.3625L50.3957 46.4613C49.3332 45.3985 50.5249 43.6516 51.9019 44.2534L63.4374 49.2932C64.1259 49.5941 64.9276 49.2799 65.2282 48.5914L66.084 46.633C66.3845 45.9449 66.0704 45.1432 65.3822 44.8426L52.0896 39.0347C50.7394 38.4448 51.1603 36.4286 52.6342 36.4286H67.14C67.8911 36.4286 68.5 35.8197 68.5 35.0686V32.9314C68.5 32.1803 67.8911 31.5714 67.14 31.5714H52.6342C51.1603 31.5714 50.7391 29.5552 52.0896 28.9652L65.3822 23.1575C66.0704 22.8568 66.3845 22.0551 66.084 21.3668L65.2282 19.4084C64.9276 18.7201 64.1259 18.4059 63.4374 18.7067L51.9019 23.7467C50.5249 24.3484 49.3332 22.6014 50.3957 21.5388L59.2972 12.6373C59.8283 12.1061 59.8283 11.2451 59.2972 10.7139L57.7859 9.20275C57.2548 8.67163 56.394 8.67163 55.8625 9.20275L45.9502 19.1154C44.9023 20.163 43.1724 19.0179 43.7276 17.6442L48.9789 4.64647C49.2604 3.95005 48.9238 3.1574 48.2275 2.87603L46.246 2.07544C45.5493 1.79407 44.7568 2.13054 44.4753 2.82695L39.5497 15.0189C38.9897 16.4049 36.9286 16.0043 36.9286 14.5095V1.36Z" fill="url(#paint0_linear_68_1253)"/>
<path fill-rule="evenodd" clip-rule="evenodd" d="M36.9286 1.36C36.9286 0.608892 36.3197 0 35.5686 0H33.4314C32.6803 0 32.0714 0.608892 32.0714 1.36V14.5095C32.0714 16.0043 30.0104 16.4049 29.4505 15.0189L24.5246 2.82695C24.2432 2.13054 23.4505 1.79407 22.7542 2.07544L20.7726 2.87603C20.0762 3.1574 19.7397 3.95005 20.0211 4.64647L25.2726 17.6443C25.8276 19.0179 24.0975 20.163 23.0499 19.1154L13.1373 9.20278C12.6062 8.67167 11.7451 8.67167 11.2139 9.20278L9.70278 10.7139C9.17167 11.2451 9.17167 12.1062 9.70278 12.6373L18.6043 21.5388C19.6669 22.6014 18.4752 24.3484 17.0981 23.7467L5.56243 18.7067C4.87413 18.4059 4.07241 18.7201 3.77169 19.4084L2.91605 21.3668C2.61534 22.0551 2.92952 22.8568 3.6178 23.1575L16.9104 28.9652C18.2608 29.5552 17.8395 31.5714 16.3659 31.5714H1.86C1.10889 31.5714 0.5 32.1803 0.5 32.9314V35.0686C0.5 35.8197 1.10889 36.4286 1.86 36.4286H16.3658C17.8395 36.4286 18.2607 38.4448 16.9103 39.0347L3.61782 44.8426C2.92954 45.1432 2.61535 45.9449 2.91607 46.633L3.77171 48.5914C4.07241 49.2799 4.87417 49.5941 5.56243 49.2932L17.0981 44.2534C18.4752 43.6516 19.6669 45.3985 18.6043 46.4613L9.70278 55.3625C9.17167 55.894 9.17167 56.7548 9.70278 57.2859L11.214 58.7972C11.7451 59.3283 12.6062 59.3283 13.1373 58.7972L23.0499 48.8845C24.0976 47.837 25.8276 48.9821 25.2726 50.3557L20.0211 63.3536C19.7397 64.0499 20.0762 64.8424 20.7726 65.1239L22.7541 65.9246C23.4505 66.2058 24.2432 65.8696 24.5246 65.1729L29.4505 52.9812C30.0104 51.595 32.0714 51.9959 32.0714 53.4905V66.64C32.0714 67.3911 32.6803 68 33.4314 68H35.5686C36.3197 68 36.9286 67.3911 36.9286 66.64V53.4905C36.9286 51.9959 38.9897 51.595 39.5497 52.9812L44.4753 65.1729C44.7568 65.8696 45.5493 66.2058 46.246 65.9246L48.2275 65.1239C48.9238 64.8424 49.2604 64.0499 48.9789 63.3536L43.7276 50.3557C43.1724 48.9821 44.9023 47.837 45.9502 48.8845L55.8625 58.7972C56.394 59.3283 57.2548 59.3283 57.7859 58.7972L59.2972 57.2859C59.8283 56.7548 59.8283 55.894 59.2972 55.3625L50.3957 46.4613C49.3332 45.3985 50.5249 43.6516 51.9019 44.2534L63.4374 49.2932C64.1259 49.5941 64.9276 49.2799 65.2282 48.5914L66.084 46.633C66.3845 45.9449 66.0704 45.1432 65.3822 44.8426L52.0896 39.0347C50.7394 38.4448 51.1603 36.4286 52.6342 36.4286H67.14C67.8911 36.4286 68.5 35.8197 68.5 35.0686V32.9314C68.5 32.1803 67.8911 31.5714 67.14 31.5714H52.6342C51.1603 31.5714 50.7391 29.5552 52.0896 28.9652L65.3822 23.1575C66.0704 22.8568 66.3845 22.0551 66.084 21.3668L65.2282 19.4084C64.9276 18.7201 64.1259 18.4059 63.4374 18.7067L51.9019 23.7467C50.5249 24.3484 49.3332 22.6014 50.3957 21.5388L59.2972 12.6373C59.8283 12.1061 59.8283 11.2451 59.2972 10.7139L57.7859 9.20275C57.2548 8.67163 56.394 8.67163 55.8625 9.20275L45.9502 19.1154C44.9023 20.163 43.1724 19.0179 43.7276 17.6442L48.9789 4.64647C49.2604 3.95005 48.9238 3.1574 48.2275 2.87603L46.246 2.07544C45.5493 1.79407 44.7568 2.13054 44.4753 2.82695L39.5497 15.0189C38.9897 16.4049 36.9286 16.0043 36.9286 14.5095V1.36Z" fill="url(#paint1_radial_68_1253)" fill-opacity="0.2" style="mix-blend-mode:overlay"/>
<path fill-rule="evenodd" clip-rule="evenodd" d="M36.9286 1.36C36.9286 0.608892 36.3197 0 35.5686 0H33.4314C32.6803 0 32.0714 0.608892 32.0714 1.36V14.5095C32.0714 16.0043 30.0104 16.4049 29.4505 15.0189L24.5246 2.82695C24.2432 2.13054 23.4505 1.79407 22.7542 2.07544L20.7726 2.87603C20.0762 3.1574 19.7397 3.95005 20.0211 4.64647L25.2726 17.6443C25.8276 19.0179 24.0975 20.163 23.0499 19.1154L13.1373 9.20278C12.6062 8.67167 11.7451 8.67167 11.2139 9.20278L9.70278 10.7139C9.17167 11.2451 9.17167 12.1062 9.70278 12.6373L18.6043 21.5388C19.6669 22.6014 18.4752 24.3484 17.0981 23.7467L5.56243 18.7067C4.87413 18.4059 4.07241 18.7201 3.77169 19.4084L2.91605 21.3668C2.61534 22.0551 2.92952 22.8568 3.6178 23.1575L16.9104 28.9652C18.2608 29.5552 17.8395 31.5714 16.3659 31.5714H1.86C1.10889 31.5714 0.5 32.1803 0.5 32.9314V35.0686C0.5 35.8197 1.10889 36.4286 1.86 36.4286H16.3658C17.8395 36.4286 18.2607 38.4448 16.9103 39.0347L3.61782 44.8426C2.92954 45.1432 2.61535 45.9449 2.91607 46.633L3.77171 48.5914C4.07241 49.2799 4.87417 49.5941 5.56243 49.2932L17.0981 44.2534C18.4752 43.6516 19.6669 45.3985 18.6043 46.4613L9.70278 55.3625C9.17167 55.894 9.17167 56.7548 9.70278 57.2859L11.214 58.7972C11.7451 59.3283 12.6062 59.3283 13.1373 58.7972L23.0499 48.8845C24.0976 47.837 25.8276 48.9821 25.2726 50.3557L20.0211 63.3536C19.7397 64.0499 20.0762 64.8424 20.7726 65.1239L22.7541 65.9246C23.4505 66.2058 24.2432 65.8696 24.5246 65.1729L29.4505 52.9812C30.0104 51.595 32.0714 51.9959 32.0714 53.4905V66.64C32.0714 67.3911 32.6803 68 33.4314 68H35.5686C36.3197 68 36.9286 67.3911 36.9286 66.64V53.4905C36.9286 51.9959 38.9897 51.595 39.5497 52.9812L44.4753 65.1729C44.7568 65.8696 45.5493 66.2058 46.246 65.9246L48.2275 65.1239C48.9238 64.8424 49.2604 64.0499 48.9789 63.3536L43.7276 50.3557C43.1724 48.9821 44.9023 47.837 45.9502 48.8845L55.8625 58.7972C56.394 59.3283 57.2548 59.3283 57.7859 58.7972L59.2972 57.2859C59.8283 56.7548 59.8283 55.894 59.2972 55.3625L50.3957 46.4613C49.3332 45.3985 50.5249 43.6516 51.9019 44.2534L63.4374 49.2932C64.1259 49.5941 64.9276 49.2799 65.2282 48.5914L66.084 46.633C66.3845 45.9449 66.0704 45.1432 65.3822 44.8426L52.0896 39.0347C50.7394 38.4448 51.1603 36.4286 52.6342 36.4286H67.14C67.8911 36.4286 68.5 35.8197 68.5 35.0686V32.9314C68.5 32.1803 67.8911 31.5714 67.14 31.5714H52.6342C51.1603 31.5714 50.7391 29.5552 52.0896 28.9652L65.3822 23.1575C66.0704 22.8568 66.3845 22.0551 66.084 21.3668L65.2282 19.4084C64.9276 18.7201 64.1259 18.4059 63.4374 18.7067L51.9019 23.7467C50.5249 24.3484 49.3332 22.6014 50.3957 21.5388L59.2972 12.6373C59.8283 12.1061 59.8283 11.2451 59.2972 10.7139L57.7859 9.20275C57.2548 8.67163 56.394 8.67163 55.8625 9.20275L45.9502 19.1154C44.9023 20.163 43.1724 19.0179 43.7276 17.6442L48.9789 4.64647C49.2604 3.95005 48.9238 3.1574 48.2275 2.87603L46.246 2.07544C45.5493 1.79407 44.7568 2.13054 44.4753 2.82695L39.5497 15.0189C38.9897 16.4049 36.9286 16.0043 36.9286 14.5095V1.36Z" fill="#BF9D65" style="mix-blend-mode:color"/>
</g>
</g>
<defs>
<linearGradient id="paint0_linear_68_1253" x1="2.5" y1="34" x2="60.4977" y2="62.4346" gradientUnits="userSpaceOnUse">
<stop stop-color="#636D72"/>
<stop offset="0.16643" stop-color="#A9ACAC"/>
<stop offset="0.364651" stop-color="#909595"/>
<stop offset="0.715647" stop-color="#636D72"/>
<stop offset="0.828699" stop-color="#818688"/>
<stop offset="1" stop-color="#636B71"/>
</linearGradient>
<radialGradient id="paint1_radial_68_1253" cx="0" cy="0" r="1" gradientUnits="userSpaceOnUse" gradientTransform="translate(0.5 2.3375) rotate(47.1949) scale(40.6945 49.9574)">
<stop stop-color="white"/>
<stop offset="1" stop-color="white" stop-opacity="0"/>
</radialGradient>
<clipPath id="clip0_68_1253">
<rect width="68" height="68" fill="white" transform="translate(0.5)"/>
</clipPath>
</defs>
</svg>
