<svg width="33" height="32" viewBox="0 0 33 32" fill="none" xmlns="http://www.w3.org/2000/svg">
<g clip-path="url(#clip0_68_1266)">
<path d="M16.5406 32C16.036 32 15.6094 31.6346 15.4872 31.145C15.0976 29.5845 14.3519 27.925 13.25 26.1667C11.9444 24.0555 10.0833 22.0973 7.66667 20.2917C5.56478 18.703 3.4629 17.6197 1.36102 17.0418C0.863208 16.905 0.5 16.4635 0.5 15.9472C0.5 15.4411 0.849237 15.0047 1.33596 14.8657C3.39672 14.2774 5.38195 13.3221 7.29166 12C9.48611 10.4722 11.3194 8.63888 12.7917 6.5C14.0941 4.59464 14.9881 2.71021 15.4738 0.846731C15.601 0.358552 16.0308 0 16.5354 0C17.0454 0 17.4782 0.366493 17.6024 0.861328C17.8827 1.97846 18.3208 3.12192 18.9166 4.29166C19.6667 5.73611 20.625 7.12499 21.7917 8.45834C22.9861 9.76389 24.3195 10.9444 25.7917 12C27.7155 13.3637 29.6712 14.3218 31.659 14.8742C32.1467 15.0097 32.5 15.4439 32.5 15.95C32.5 16.4637 32.136 16.9014 31.6406 17.0373C30.3806 17.3827 29.0837 17.9398 27.7501 18.7083C26.1389 19.6528 24.6389 20.7778 23.2499 22.0834C21.8611 23.3611 20.7222 24.7083 19.8333 26.125C18.7293 27.8869 17.9827 29.5592 17.5939 31.1422C17.4733 31.6333 17.0461 32 16.5406 32Z" fill="url(#paint0_linear_68_1266)"/>
<path d="M16.5406 32C16.036 32 15.6094 31.6346 15.4872 31.145C15.0976 29.5845 14.3519 27.925 13.25 26.1667C11.9444 24.0555 10.0833 22.0973 7.66667 20.2917C5.56478 18.703 3.4629 17.6197 1.36102 17.0418C0.863208 16.905 0.5 16.4635 0.5 15.9472C0.5 15.4411 0.849237 15.0047 1.33596 14.8657C3.39672 14.2774 5.38195 13.3221 7.29166 12C9.48611 10.4722 11.3194 8.63888 12.7917 6.5C14.0941 4.59464 14.9881 2.71021 15.4738 0.846731C15.601 0.358552 16.0308 0 16.5354 0C17.0454 0 17.4782 0.366493 17.6024 0.861328C17.8827 1.97846 18.3208 3.12192 18.9166 4.29166C19.6667 5.73611 20.625 7.12499 21.7917 8.45834C22.9861 9.76389 24.3195 10.9444 25.7917 12C27.7155 13.3637 29.6712 14.3218 31.659 14.8742C32.1467 15.0097 32.5 15.4439 32.5 15.95C32.5 16.4637 32.136 16.9014 31.6406 17.0373C30.3806 17.3827 29.0837 17.9398 27.7501 18.7083C26.1389 19.6528 24.6389 20.7778 23.2499 22.0834C21.8611 23.3611 20.7222 24.7083 19.8333 26.125C18.7293 27.8869 17.9827 29.5592 17.5939 31.1422C17.4733 31.6333 17.0461 32 16.5406 32Z" fill="url(#paint1_radial_68_1266)" fill-opacity="0.2" style="mix-blend-mode:overlay"/>
<path d="M16.5406 32C16.036 32 15.6094 31.6346 15.4872 31.145C15.0976 29.5845 14.3519 27.925 13.25 26.1667C11.9444 24.0555 10.0833 22.0973 7.66667 20.2917C5.56478 18.703 3.4629 17.6197 1.36102 17.0418C0.863208 16.905 0.5 16.4635 0.5 15.9472C0.5 15.4411 0.849237 15.0047 1.33596 14.8657C3.39672 14.2774 5.38195 13.3221 7.29166 12C9.48611 10.4722 11.3194 8.63888 12.7917 6.5C14.0941 4.59464 14.9881 2.71021 15.4738 0.846731C15.601 0.358552 16.0308 0 16.5354 0C17.0454 0 17.4782 0.366493 17.6024 0.861328C17.8827 1.97846 18.3208 3.12192 18.9166 4.29166C19.6667 5.73611 20.625 7.12499 21.7917 8.45834C22.9861 9.76389 24.3195 10.9444 25.7917 12C27.7155 13.3637 29.6712 14.3218 31.659 14.8742C32.1467 15.0097 32.5 15.4439 32.5 15.95C32.5 16.4637 32.136 16.9014 31.6406 17.0373C30.3806 17.3827 29.0837 17.9398 27.7501 18.7083C26.1389 19.6528 24.6389 20.7778 23.2499 22.0834C21.8611 23.3611 20.7222 24.7083 19.8333 26.125C18.7293 27.8869 17.9827 29.5592 17.5939 31.1422C17.4733 31.6333 17.0461 32 16.5406 32Z" fill="#BF9D65" style="mix-blend-mode:color"/>
</g>
<defs>
<linearGradient id="paint0_linear_68_1266" x1="1.44118" y1="16" x2="28.7342" y2="29.381" gradientUnits="userSpaceOnUse">
<stop stop-color="#636D72"/>
<stop offset="0.16643" stop-color="#A9ACAC"/>
<stop offset="0.364651" stop-color="#909595"/>
<stop offset="0.715647" stop-color="#636D72"/>
<stop offset="0.828699" stop-color="#818688"/>
<stop offset="1" stop-color="#636B71"/>
</linearGradient>
<radialGradient id="paint1_radial_68_1266" cx="0" cy="0" r="1" gradientUnits="userSpaceOnUse" gradientTransform="translate(0.5 1.1) rotate(47.1949) scale(19.1503 23.5094)">
<stop stop-color="white"/>
<stop offset="1" stop-color="white" stop-opacity="0"/>
</radialGradient>
<clipPath id="clip0_68_1266">
<rect width="32" height="32" fill="white" transform="translate(0.5)"/>
</clipPath>
</defs>
</svg>
