<svg width="75" height="75" viewBox="0 0 75 75" fill="none" xmlns="http://www.w3.org/2000/svg">
<path d="M37.3959 0L37.5803 6.67943C38.0406 23.3475 51.4444 36.7512 68.1124 37.2115L74.7918 37.3959L68.1124 37.5803C51.4444 38.0406 38.0406 51.4444 37.5803 68.1124L37.3959 74.7918L37.2115 68.1124C36.7512 51.4444 23.3475 38.0406 6.67943 37.5803L0 37.3959L6.67943 37.2115C23.3475 36.7512 36.7512 23.3475 37.2115 6.67943L37.3959 0Z" fill="url(#paint0_linear_31_293)"/>
<path d="M37.3959 0L37.5803 6.67943C38.0406 23.3475 51.4444 36.7512 68.1124 37.2115L74.7918 37.3959L68.1124 37.5803C51.4444 38.0406 38.0406 51.4444 37.5803 68.1124L37.3959 74.7918L37.2115 68.1124C36.7512 51.4444 23.3475 38.0406 6.67943 37.5803L0 37.3959L6.67943 37.2115C23.3475 36.7512 36.7512 23.3475 37.2115 6.67943L37.3959 0Z" fill="url(#paint1_radial_31_293)" fill-opacity="0.2" style="mix-blend-mode:overlay"/>
<path d="M37.3959 0L37.5803 6.67943C38.0406 23.3475 51.4444 36.7512 68.1124 37.2115L74.7918 37.3959L68.1124 37.5803C51.4444 38.0406 38.0406 51.4444 37.5803 68.1124L37.3959 74.7918L37.2115 68.1124C36.7512 51.4444 23.3475 38.0406 6.67943 37.5803L0 37.3959L6.67943 37.2115C23.3475 36.7512 36.7512 23.3475 37.2115 6.67943L37.3959 0Z" fill="#BF9D65" style="mix-blend-mode:color"/>
<defs>
<linearGradient id="paint0_linear_31_293" x1="2.19976" y1="37.3959" x2="65.9903" y2="68.6706" gradientUnits="userSpaceOnUse">
<stop stop-color="#636D72"/>
<stop offset="0.16643" stop-color="#A9ACAC"/>
<stop offset="0.364651" stop-color="#909595"/>
<stop offset="0.715647" stop-color="#636D72"/>
<stop offset="0.828699" stop-color="#818688"/>
<stop offset="1" stop-color="#636B71"/>
</linearGradient>
<radialGradient id="paint1_radial_31_293" cx="0" cy="0" r="1" gradientUnits="userSpaceOnUse" gradientTransform="translate(3.48105e-08 2.57097) rotate(47.1949) scale(44.759 54.9472)">
<stop stop-color="white"/>
<stop offset="1" stop-color="white" stop-opacity="0"/>
</radialGradient>
</defs>
</svg>
