<svg width="16" height="14" viewBox="0 0 16 14" fill="none" xmlns="http://www.w3.org/2000/svg">
<path fill-rule="evenodd" clip-rule="evenodd" d="M15.9999 2.03876C15.4117 2.30002 14.7787 2.47596 14.1147 2.55541C14.7926 2.14912 15.313 1.50611 15.5578 0.739929C14.9243 1.11635 14.2209 1.38881 13.4737 1.5365C12.8748 0.898819 12.021 0.5 11.0776 0.5C9.26492 0.5 7.79515 1.96944 7.79515 3.78172C7.79515 4.03872 7.82448 4.28931 7.88048 4.52977C5.15213 4.39328 2.73362 3.08646 1.11453 1.10089C0.831884 1.58555 0.670294 2.14913 0.670294 2.75056C0.670294 3.8889 1.24892 4.89341 2.13046 5.48204C1.59183 5.46498 1.08627 5.31729 0.643095 5.07149V5.11254C0.643095 6.70302 1.77529 8.02904 3.27599 8.33135C3.0008 8.406 2.71069 8.44652 2.41151 8.44652C2.19979 8.44652 1.99394 8.42572 1.79342 8.38733C2.21099 9.69096 3.42371 10.64 4.85988 10.6667C3.73676 11.5464 2.32138 12.0716 0.783352 12.0716C0.51777 12.0716 0.256455 12.0561 -6.10352e-05 12.0252C1.45264 12.9562 3.17786 13.5 5.0316 13.5C11.0691 13.5 14.3707 8.4993 14.3707 4.16294C14.3707 4.02059 14.368 3.87877 14.3611 3.73854C15.0032 3.27467 15.56 2.6967 15.9999 2.03876Z" fill="#8C8C8C"/>
</svg>
